<?xml version="1.0" standalone="no"?>
<!DOCTYPE svg PUBLIC "-//W3C//DTD SVG 20010904//EN"
 "http://www.w3.org/TR/2001/REC-SVG-20010904/DTD/svg10.dtd">
<svg version="1.0" xmlns="http://www.w3.org/2000/svg"
 width="500.000000pt" height="500.000000pt" viewBox="0 0 500.000000 500.000000"
 preserveAspectRatio="xMidYMid meet">
<metadata>
Created by potrace 1.14, written by Peter Selinger 2001-2017
</metadata>
<g transform="translate(0.000000,500.000000) scale(0.100000,-0.100000)"
fill="#000000" stroke="none">
<path d="M0 2500 l0 -2500 2500 0 2500 0 0 2500 0 2500 -2500 0 -2500 0 0
-2500z m4136 1508 l204 -202 0 -740 0 -741 -202 -202 -203 -203 -1426 0 -1427
0 -211 213 -211 212 0 720 0 720 212 212 213 213 1423 0 1424 0 204 -202z
m-2346 -2620 c0 -32 -4 -58 -9 -58 -5 0 -16 18 -25 39 -19 49 -40 61 -106 61
-61 0 -100 -30 -100 -79 0 -40 34 -65 119 -86 93 -23 127 -45 142 -94 17 -56
4 -108 -37 -149 -33 -33 -35 -34 -101 -28 -113 10 -117 10 -135 2 -16 -7 -18
-1 -18 69 0 42 4 74 8 71 4 -2 19 -27 31 -55 25 -52 50 -69 106 -73 53 -3 90
11 108 41 37 62 9 109 -77 132 -107 27 -138 41 -157 73 -23 37 -25 96 -4 136
25 48 58 59 162 57 l93 -2 0 -57z m479 47 c25 -12 31 -12 47 0 11 8 22 15 27
15 4 0 7 -31 7 -70 0 -38 -4 -70 -9 -70 -4 0 -16 20 -26 45 -20 52 -54 75
-113 75 -50 0 -95 -39 -111 -96 -13 -47 -14 -174 -1 -229 13 -57 58 -95 113
-95 59 0 100 28 115 78 21 68 32 60 32 -22 0 -42 -3 -76 -7 -76 -5 0 -16 7
-27 15 -16 12 -21 12 -40 0 -12 -9 -44 -15 -76 -15 -118 0 -192 86 -193 225
-1 106 37 177 118 219 38 20 107 20 144 1z m437 -4 c127 -58 164 -247 73 -371
-61 -82 -216 -95 -295 -24 -45 40 -69 104 -69 184 0 81 20 134 67 177 56 53
151 67 224 34z m1245 -156 c88 -255 88 -255 109 -255 10 0 22 -4 25 -10 4 -6
-25 -10 -80 -10 -55 0 -84 4 -80 10 3 6 13 10 21 10 18 0 18 2 -3 67 l-17 53
-73 0 -73 0 -14 -33 c-28 -68 -28 -73 1 -88 l28 -13 -32 -4 c-18 -2 -50 -2
-70 1 l-38 3 32 14 c29 13 37 28 110 222 43 114 82 207 87 205 5 -2 35 -79 67
-172z m418 160 c26 -13 30 -13 41 0 28 34 40 17 40 -56 0 -80 -15 -89 -37 -22
-33 99 -177 97 -219 -3 -19 -45 -19 -223 0 -268 20 -47 61 -76 108 -76 62 0
93 22 114 80 10 27 22 50 26 50 4 0 8 -34 8 -75 0 -41 -3 -75 -7 -75 -5 0 -16
7 -26 14 -16 12 -22 12 -45 0 -59 -30 -168 -9 -213 42 -30 35 -49 83 -55 142
-12 110 38 212 119 247 42 19 111 19 146 0z m-3679 -61 c0 -80 -16 -82 -44 -6
l-19 52 -78 0 -79 0 0 -95 0 -95 33 0 c28 0 34 5 49 40 27 64 38 50 38 -50 0
-100 -12 -115 -37 -50 -14 36 -20 40 -50 40 l-33 0 0 -95 0 -95 84 0 84 0 22
60 c12 33 26 60 31 60 5 0 9 -31 9 -70 l0 -70 -176 0 c-114 0 -173 3 -169 10
3 6 15 10 26 10 18 0 19 9 19 200 l0 200 -25 0 c-14 0 -25 5 -25 10 0 6 63 10
170 10 l170 0 0 -66z m190 56 c0 -5 -12 -10 -26 -10 l-25 0 32 -57 c18 -32 43
-75 57 -97 l24 -38 48 83 49 84 -29 14 c-17 8 -30 18 -30 23 0 4 104 8 230 8
l230 0 0 -65 c0 -36 -4 -65 -9 -65 -5 0 -19 25 -31 55 l-22 55 -79 0 -79 0 0
-95 0 -95 33 0 c30 0 36 5 52 40 10 22 22 40 27 40 4 0 8 -40 8 -90 0 -99 -11
-114 -36 -50 -14 36 -20 40 -50 40 l-34 0 0 -95 0 -96 86 3 87 3 20 58 c12 31
25 57 29 57 4 0 8 -31 8 -70 l0 -70 -170 0 c-107 0 -170 4 -170 10 0 6 11 10
25 10 l25 0 -2 197 c-3 182 -4 198 -21 201 -42 8 -72 -18 -129 -117 l-58 -98
0 -91 c0 -91 0 -92 25 -92 14 0 25 -4 25 -10 0 -6 -35 -10 -86 -10 -54 0 -83
4 -79 10 3 6 15 10 26 10 17 0 19 8 19 87 l0 86 -62 109 c-44 75 -70 110 -85
114 -49 13 -19 24 62 24 50 0 85 -4 85 -10z m2198 -123 c51 -73 102 -143 112
-157 l20 -25 0 141 0 142 -25 6 c-46 12 -26 26 35 26 63 0 78 -13 35 -30 l-25
-10 0 -200 c0 -110 -4 -200 -9 -200 -8 0 -67 78 -191 254 -38 54 -72 101 -75
104 -3 3 -5 -70 -5 -161 l0 -167 25 -6 c45 -11 26 -24 -35 -24 -64 0 -76 10
-35 28 l25 12 0 180 0 180 -25 10 c-42 16 -28 30 28 30 l52 -1 93 -132z m592
68 c0 -36 -4 -65 -9 -65 -5 0 -18 24 -29 53 -19 51 -20 52 -65 55 l-45 3 0
-200 -1 -201 24 0 c13 0 27 -4 30 -10 4 -6 -25 -10 -79 -10 -51 0 -86 4 -86
10 0 6 11 10 25 10 l25 0 0 200 0 200 -44 0 c-43 0 -44 0 -62 -52 -28 -76 -44
-74 -44 6 l0 66 180 0 180 0 0 -65z m1188 3 c-2 -34 -8 -63 -14 -65 -6 -2 -20
20 -31 49 -19 51 -22 53 -62 56 l-41 3 0 -200 c0 -192 1 -201 19 -201 11 0 23
-4 26 -10 4 -6 -25 -10 -79 -10 -51 0 -86 4 -86 10 0 6 11 10 25 10 l25 0 0
200 0 200 -43 0 -44 0 -18 -55 c-26 -77 -45 -72 -45 10 l0 65 185 0 186 0 -3
-62z"/>
<path d="M933 3938 l-193 -193 0 -680 0 -680 198 -198 198 -197 1374 0 1374 0
193 193 193 193 0 684 0 685 -191 193 -191 192 -1381 0 -1382 0 -192 -192z
m1037 -554 c127 -17 217 -38 360 -85 117 -38 215 -41 307 -10 215 72 354 99
568 110 183 9 475 3 493 -11 21 -18 13 -93 -18 -180 -16 -46 -43 -149 -59
-229 -34 -172 -59 -234 -128 -309 -91 -99 -201 -141 -373 -141 -141 0 -224 26
-318 100 -75 60 -125 145 -178 304 -45 134 -48 139 -82 154 -29 12 -44 13 -73
4 -43 -13 -52 -29 -99 -176 -85 -268 -233 -386 -485 -386 -172 -1 -266 33
-363 129 -81 79 -107 139 -147 334 -18 90 -45 193 -59 231 -28 73 -34 148 -13
165 28 23 477 20 667 -4z"/>
<path d="M1370 3325 c0 -8 7 -15 15 -15 8 0 15 7 15 15 0 8 -7 15 -15 15 -8 0
-15 -7 -15 -15z"/>
<path d="M3600 3325 c0 -8 7 -15 15 -15 8 0 15 7 15 15 0 8 -7 15 -15 15 -8 0
-15 -7 -15 -15z"/>
<path d="M1703 3306 c-125 -24 -193 -77 -233 -183 -18 -48 -21 -72 -17 -142 4
-72 11 -95 46 -166 49 -100 122 -172 209 -207 48 -19 76 -23 172 -23 103 0
121 3 170 26 114 53 220 203 255 361 28 126 -8 219 -104 272 -104 56 -360 88
-498 62z"/>
<path d="M3053 3309 c-249 -29 -346 -93 -367 -242 -7 -52 26 -173 70 -257 74
-141 187 -220 325 -228 207 -12 341 66 428 248 34 71 36 80 35 175 0 113 -13
152 -69 214 -75 83 -219 114 -422 90z"/>
<path d="M1374 3266 c-8 -22 3 -33 18 -18 9 9 9 15 0 24 -9 9 -13 7 -18 -6z"/>
<path d="M3600 3255 c0 -8 7 -15 15 -15 8 0 15 7 15 15 0 8 -7 15 -15 15 -8 0
-15 -7 -15 -15z"/>
<path d="M2558 1414 c-49 -26 -68 -80 -68 -194 0 -154 35 -210 130 -210 54 0
90 23 117 73 24 44 24 216 0 269 -29 68 -115 97 -179 62z"/>
<path d="M3822 1254 c-18 -48 -31 -89 -28 -91 2 -2 30 -3 63 -1 l59 3 -31 88
-32 89 -31 -88z"/>
</g>
</svg>
